<svg width="102" height="225" viewBox="0 0 102 225" fill="none" xmlns="http://www.w3.org/2000/svg">
<circle r="10.2" transform="matrix(-1 0 0 1 10.2004 10.2)" fill="#E74032"/>
<circle r="10.2" transform="matrix(-1 0 0 1 10.2004 51)" fill="#E74032"/>
<circle r="10.2" transform="matrix(-1 0 0 1 10.2004 91.8)" fill="#E74032"/>
<circle r="10.2" transform="matrix(-1 0 0 1 10.2004 132.6)" fill="#E74032"/>
<circle r="10.2" transform="matrix(-1 0 0 1 10.2004 173.4)" fill="#E74032"/>
<circle r="10.2" transform="matrix(-1 0 0 1 10.2004 214.2)" fill="#E74032"/>
<circle r="10.2" transform="matrix(-1 0 0 1 50.9992 10.2)" fill="#E74032"/>
<circle r="10.2" transform="matrix(-1 0 0 1 50.9992 51)" fill="#E74032"/>
<circle r="10.2" transform="matrix(-1 0 0 1 50.9992 91.8)" fill="#E74032"/>
<circle r="10.2" transform="matrix(-1 0 0 1 50.9992 132.6)" fill="#E74032"/>
<circle r="10.2" transform="matrix(-1 0 0 1 50.9992 173.4)" fill="#E74032"/>
<circle r="10.2" transform="matrix(-1 0 0 1 50.9992 214.2)" fill="#E74032"/>
<circle r="10.2" transform="matrix(-1 0 0 1 91.8 10.2)" fill="#E74032"/>
<circle r="10.2" transform="matrix(-1 0 0 1 91.8 51)" fill="#E74032"/>
<circle r="10.2" transform="matrix(-1 0 0 1 91.8 91.8)" fill="#E74032"/>
<circle r="10.2" transform="matrix(-1 0 0 1 91.8 132.6)" fill="#E74032"/>
<circle r="10.2" transform="matrix(-1 0 0 1 91.8 173.4)" fill="#E74032"/>
<circle r="10.2" transform="matrix(-1 0 0 1 91.8 214.2)" fill="#E74032"/>
</svg>
