<svg width="71" height="160" viewBox="0 0 71 160" fill="none" xmlns="http://www.w3.org/2000/svg">
<circle r="5.78981" transform="matrix(-1 0 0 1 5.79418 5.78981)" fill="#E74032"/>
<circle r="5.78981" transform="matrix(-1 0 0 1 5.79418 35.3694)" fill="#E74032"/>
<circle r="5.78981" transform="matrix(-1 0 0 1 5.79418 64.949)" fill="#E74032"/>
<circle r="5.78981" transform="matrix(-1 0 0 1 5.79418 94.5286)" fill="#E74032"/>
<circle r="5.78981" transform="matrix(-1 0 0 1 5.79418 124.108)" fill="#E74032"/>
<circle r="5.78981" transform="matrix(-1 0 0 1 5.79418 153.688)" fill="#E74032"/>
<circle r="5.78981" transform="matrix(-1 0 0 1 35.3743 5.78981)" fill="#E74032"/>
<circle r="5.78981" transform="matrix(-1 0 0 1 35.3743 35.3694)" fill="#E74032"/>
<circle r="5.78981" transform="matrix(-1 0 0 1 35.3743 64.949)" fill="#E74032"/>
<circle r="5.78981" transform="matrix(-1 0 0 1 35.3743 94.5286)" fill="#E74032"/>
<circle r="5.78981" transform="matrix(-1 0 0 1 35.3743 124.108)" fill="#E74032"/>
<circle r="5.78981" transform="matrix(-1 0 0 1 35.3743 153.688)" fill="#E74032"/>
<circle r="5.78981" transform="matrix(-1 0 0 1 64.9543 5.78981)" fill="#E74032"/>
<circle r="5.78981" transform="matrix(-1 0 0 1 64.9543 35.3694)" fill="#E74032"/>
<circle r="5.78981" transform="matrix(-1 0 0 1 64.9543 64.949)" fill="#E74032"/>
<circle r="5.78981" transform="matrix(-1 0 0 1 64.9543 94.5286)" fill="#E74032"/>
<circle r="5.78981" transform="matrix(-1 0 0 1 64.9543 124.108)" fill="#E74032"/>
<circle r="5.78981" transform="matrix(-1 0 0 1 64.9543 153.688)" fill="#E74032"/>
</svg>
