<svg width="80" height="144" viewBox="0 0 80 144" fill="none" xmlns="http://www.w3.org/2000/svg">
<circle r="8" transform="matrix(-1 0 0 1 8 8)" fill="#E74032"/>
<circle r="8" transform="matrix(-1 0 0 1 8 40)" fill="#E74032"/>
<circle r="8" transform="matrix(-1 0 0 1 8 72)" fill="#E74032"/>
<circle r="8" transform="matrix(-1 0 0 1 8 104)" fill="#E74032"/>
<circle r="8" transform="matrix(-1 0 0 1 8 136)" fill="#E74032"/>
<circle r="8" transform="matrix(-1 0 0 1 40 8)" fill="#E74032"/>
<circle r="8" transform="matrix(-1 0 0 1 40 40)" fill="#E74032"/>
<circle r="8" transform="matrix(-1 0 0 1 40 72)" fill="#E74032"/>
<circle r="8" transform="matrix(-1 0 0 1 40 104)" fill="#E74032"/>
<circle r="8" transform="matrix(-1 0 0 1 40 136)" fill="#E74032"/>
<circle r="8" transform="matrix(-1 0 0 1 72 8)" fill="#E74032"/>
<circle r="8" transform="matrix(-1 0 0 1 72 40)" fill="#E74032"/>
<circle r="8" transform="matrix(-1 0 0 1 72 72)" fill="#E74032"/>
<circle r="8" transform="matrix(-1 0 0 1 72 104)" fill="#E74032"/>
<circle r="8" transform="matrix(-1 0 0 1 72 136)" fill="#E74032"/>
</svg>
